<mxfile host="app.diagrams.net" agent="Mozilla/5.0 (Windows NT 10.0; Win64; x64) AppleWebKit/537.36 (KHTML, like Gecko) Chrome/136.0.0.0 Safari/537.36 Edg/136.0.0.0" version="27.0.6">
  <diagram name="Page-1" id="gQgOG3QuQL5URK4sWG0r">
    <mxGraphModel dx="1630" dy="902" grid="1" gridSize="10" guides="1" tooltips="1" connect="1" arrows="1" fold="1" page="1" pageScale="1" pageWidth="850" pageHeight="1100" math="0" shadow="0">
      <root>
        <mxCell id="0" />
        <mxCell id="1" parent="0" />
        <mxCell id="3UEoeYZ-971hLKrZ-Qwe-1" value="Sơ đồ tuần tự chức năng gửi tin nhắn" style="swimlane;whiteSpace=wrap;html=1;startSize=23;fontSize=14;" parent="1" vertex="1">
          <mxGeometry x="120" y="260" width="940" height="360" as="geometry" />
        </mxCell>
        <mxCell id="3UEoeYZ-971hLKrZ-Qwe-2" value="" style="shape=umlLifeline;perimeter=lifelinePerimeter;whiteSpace=wrap;html=1;container=1;dropTarget=0;collapsible=0;recursiveResize=0;outlineConnect=0;portConstraint=eastwest;newEdgeStyle={&quot;curved&quot;:0,&quot;rounded&quot;:0};participant=umlActor;" parent="3UEoeYZ-971hLKrZ-Qwe-1" vertex="1">
          <mxGeometry x="40" y="51" width="30" height="309" as="geometry" />
        </mxCell>
        <mxCell id="3UEoeYZ-971hLKrZ-Qwe-5" value="Web Client" style="shape=umlLifeline;perimeter=lifelinePerimeter;whiteSpace=wrap;html=1;container=1;dropTarget=0;collapsible=0;recursiveResize=0;outlineConnect=0;portConstraint=eastwest;newEdgeStyle={&quot;curved&quot;:0,&quot;rounded&quot;:0};" parent="3UEoeYZ-971hLKrZ-Qwe-1" vertex="1">
          <mxGeometry x="470" y="50" width="90" height="310" as="geometry" />
        </mxCell>
        <mxCell id="3UEoeYZ-971hLKrZ-Qwe-7" value="WebSocket&amp;nbsp;" style="shape=umlLifeline;perimeter=lifelinePerimeter;whiteSpace=wrap;html=1;container=1;dropTarget=0;collapsible=0;recursiveResize=0;outlineConnect=0;portConstraint=eastwest;newEdgeStyle={&quot;curved&quot;:0,&quot;rounded&quot;:0};" parent="3UEoeYZ-971hLKrZ-Qwe-1" vertex="1">
          <mxGeometry x="660" y="50" width="90" height="310" as="geometry" />
        </mxCell>
        <mxCell id="QLcMSV-16UvKaecY24Wt-1" value="" style="html=1;points=[[0,0,0,0,5],[0,1,0,0,-5],[1,0,0,0,5],[1,1,0,0,-5]];perimeter=orthogonalPerimeter;outlineConnect=0;targetShapes=umlLifeline;portConstraint=eastwest;newEdgeStyle={&quot;curved&quot;:0,&quot;rounded&quot;:0};" parent="3UEoeYZ-971hLKrZ-Qwe-7" vertex="1">
          <mxGeometry x="-150" y="60" width="10" height="55" as="geometry" />
        </mxCell>
        <mxCell id="QLcMSV-16UvKaecY24Wt-2" value="" style="html=1;points=[[0,0,0,0,5],[0,1,0,0,-5],[1,0,0,0,5],[1,1,0,0,-5]];perimeter=orthogonalPerimeter;outlineConnect=0;targetShapes=umlLifeline;portConstraint=eastwest;newEdgeStyle={&quot;curved&quot;:0,&quot;rounded&quot;:0};" parent="3UEoeYZ-971hLKrZ-Qwe-7" vertex="1">
          <mxGeometry x="40" y="60" width="10" height="50" as="geometry" />
        </mxCell>
        <mxCell id="QLcMSV-16UvKaecY24Wt-3" value="Yêu cấu kết nối socket" style="html=1;verticalAlign=bottom;endArrow=block;curved=0;rounded=0;" parent="3UEoeYZ-971hLKrZ-Qwe-7" edge="1">
          <mxGeometry width="80" relative="1" as="geometry">
            <mxPoint x="-140" y="70" as="sourcePoint" />
            <mxPoint x="40" y="70" as="targetPoint" />
          </mxGeometry>
        </mxCell>
        <mxCell id="QLcMSV-16UvKaecY24Wt-4" value="Xác nhận kết nối" style="html=1;verticalAlign=bottom;endArrow=open;dashed=1;endSize=8;curved=0;rounded=0;" parent="3UEoeYZ-971hLKrZ-Qwe-7" edge="1">
          <mxGeometry relative="1" as="geometry">
            <mxPoint x="40" y="100" as="sourcePoint" />
            <mxPoint x="-140" y="100" as="targetPoint" />
            <mxPoint as="offset" />
          </mxGeometry>
        </mxCell>
        <mxCell id="3UEoeYZ-971hLKrZ-Qwe-15" value="MySQL" style="shape=umlLifeline;perimeter=lifelinePerimeter;whiteSpace=wrap;html=1;container=1;dropTarget=0;collapsible=0;recursiveResize=0;outlineConnect=0;portConstraint=eastwest;newEdgeStyle={&quot;curved&quot;:0,&quot;rounded&quot;:0};" parent="3UEoeYZ-971hLKrZ-Qwe-1" vertex="1">
          <mxGeometry x="840" y="50" width="90" height="310" as="geometry" />
        </mxCell>
        <mxCell id="3UEoeYZ-971hLKrZ-Qwe-9" value="Nhập nội dung tin nhắn" style="html=1;verticalAlign=bottom;endArrow=block;curved=0;rounded=0;" parent="1" edge="1">
          <mxGeometry width="80" relative="1" as="geometry">
            <mxPoint x="180" y="439" as="sourcePoint" />
            <mxPoint x="400" y="439" as="targetPoint" />
          </mxGeometry>
        </mxCell>
        <mxCell id="3UEoeYZ-971hLKrZ-Qwe-10" value="Gửi nội dung tin nhắn" style="html=1;verticalAlign=bottom;endArrow=block;curved=0;rounded=0;" parent="1" edge="1">
          <mxGeometry width="80" relative="1" as="geometry">
            <mxPoint x="410" y="449" as="sourcePoint" />
            <mxPoint x="630" y="449" as="targetPoint" />
          </mxGeometry>
        </mxCell>
        <mxCell id="3UEoeYZ-971hLKrZ-Qwe-11" value="Gửi tin nhắn qua kết nối socket" style="html=1;verticalAlign=bottom;endArrow=block;curved=0;rounded=0;" parent="1" target="3UEoeYZ-971hLKrZ-Qwe-8" edge="1">
          <mxGeometry width="80" relative="1" as="geometry">
            <mxPoint x="640" y="459" as="sourcePoint" />
            <mxPoint x="800" y="459" as="targetPoint" />
          </mxGeometry>
        </mxCell>
        <mxCell id="3UEoeYZ-971hLKrZ-Qwe-20" value="Lưu tin nhắn vào CSDL" style="html=1;verticalAlign=bottom;endArrow=block;curved=0;rounded=0;" parent="1" target="3UEoeYZ-971hLKrZ-Qwe-16" edge="1">
          <mxGeometry width="80" relative="1" as="geometry">
            <mxPoint x="830" y="469" as="sourcePoint" />
            <mxPoint x="910" y="469" as="targetPoint" />
          </mxGeometry>
        </mxCell>
        <mxCell id="3UEoeYZ-971hLKrZ-Qwe-21" value="Tin nhắn đã lưu" style="html=1;verticalAlign=bottom;endArrow=open;dashed=1;endSize=8;curved=0;rounded=0;" parent="1" target="3UEoeYZ-971hLKrZ-Qwe-8" edge="1">
          <mxGeometry relative="1" as="geometry">
            <mxPoint x="1000" y="499" as="sourcePoint" />
            <mxPoint x="920" y="499" as="targetPoint" />
          </mxGeometry>
        </mxCell>
        <mxCell id="3UEoeYZ-971hLKrZ-Qwe-23" value="Gửi tin nhắn đã gửi realtime" style="html=1;verticalAlign=bottom;endArrow=open;dashed=1;endSize=8;curved=0;rounded=0;" parent="1" target="3UEoeYZ-971hLKrZ-Qwe-6" edge="1">
          <mxGeometry relative="1" as="geometry">
            <mxPoint x="820" y="519" as="sourcePoint" />
            <mxPoint x="740" y="519" as="targetPoint" />
          </mxGeometry>
        </mxCell>
        <mxCell id="3UEoeYZ-971hLKrZ-Qwe-25" value="Nhận tin nhắn realtime" style="html=1;verticalAlign=bottom;endArrow=open;dashed=1;endSize=8;curved=0;rounded=0;" parent="1" target="3UEoeYZ-971hLKrZ-Qwe-4" edge="1">
          <mxGeometry relative="1" as="geometry">
            <mxPoint x="630" y="529" as="sourcePoint" />
            <mxPoint x="550" y="529" as="targetPoint" />
          </mxGeometry>
        </mxCell>
        <mxCell id="3UEoeYZ-971hLKrZ-Qwe-26" value="Hiển thị tin nhắn mới vừa gửi" style="html=1;verticalAlign=bottom;endArrow=open;dashed=1;endSize=8;curved=0;rounded=0;" parent="1" edge="1">
          <mxGeometry relative="1" as="geometry">
            <mxPoint x="400" y="539" as="sourcePoint" />
            <mxPoint x="174.5" y="539" as="targetPoint" />
          </mxGeometry>
        </mxCell>
        <mxCell id="3UEoeYZ-971hLKrZ-Qwe-6" value="&lt;span style=&quot;color: rgba(0, 0, 0, 0); font-family: monospace; font-size: 0px; text-align: start;&quot;&gt;%3CmxGraphModel%3E%3Croot%3E%3CmxCell%20id%3D%220%22%2F%3E%3CmxCell%20id%3D%221%22%20parent%3D%220%22%2F%3E%3CmxCell%20id%3D%222%22%20value%3D%22G%E1%BB%8Di%20API%20t%C3%ACm%20ki%E1%BA%BFm%20d%E1%BB%AF%20li%E1%BB%87u%22%20style%3D%22html%3D1%3BverticalAlign%3Dbottom%3BendArrow%3Dblock%3Bcurved%3D0%3Brounded%3D0%3B%22%20edge%3D%221%22%20parent%3D%221%22%3E%3CmxGeometry%20width%3D%2280%22%20relative%3D%221%22%20as%3D%22geometry%22%3E%3CmxPoint%20x%3D%22360%22%20y%3D%22730%22%20as%3D%22sourcePoint%22%2F%3E%3CmxPoint%20x%3D%22580%22%20y%3D%22730%22%20as%3D%22targetPoint%22%2F%3E%3C%2FmxGeometry%3E%3C%2FmxCell%3E%3C%2Froot%3E%3C%2FmxGraphModel%3E&lt;/span&gt;" style="html=1;points=[[0,0,0,0,5],[0,1,0,0,-5],[1,0,0,0,5],[1,1,0,0,-5]];perimeter=orthogonalPerimeter;outlineConnect=0;targetShapes=umlLifeline;portConstraint=eastwest;newEdgeStyle={&quot;curved&quot;:0,&quot;rounded&quot;:0};" parent="1" vertex="1">
          <mxGeometry x="630" y="439" width="10" height="110" as="geometry" />
        </mxCell>
        <mxCell id="3UEoeYZ-971hLKrZ-Qwe-8" value="" style="html=1;points=[[0,0,0,0,5],[0,1,0,0,-5],[1,0,0,0,5],[1,1,0,0,-5]];perimeter=orthogonalPerimeter;outlineConnect=0;targetShapes=umlLifeline;portConstraint=eastwest;newEdgeStyle={&quot;curved&quot;:0,&quot;rounded&quot;:0};" parent="1" vertex="1">
          <mxGeometry x="820" y="449" width="10" height="80" as="geometry" />
        </mxCell>
        <mxCell id="3UEoeYZ-971hLKrZ-Qwe-16" value="" style="html=1;points=[[0,0,0,0,5],[0,1,0,0,-5],[1,0,0,0,5],[1,1,0,0,-5]];perimeter=orthogonalPerimeter;outlineConnect=0;targetShapes=umlLifeline;portConstraint=eastwest;newEdgeStyle={&quot;curved&quot;:0,&quot;rounded&quot;:0};" parent="1" vertex="1">
          <mxGeometry x="1000" y="459" width="10" height="50" as="geometry" />
        </mxCell>
        <mxCell id="3UEoeYZ-971hLKrZ-Qwe-3" value="Giao diện" style="shape=umlLifeline;perimeter=lifelinePerimeter;whiteSpace=wrap;html=1;container=1;dropTarget=0;collapsible=0;recursiveResize=0;outlineConnect=0;portConstraint=eastwest;newEdgeStyle={&quot;curved&quot;:0,&quot;rounded&quot;:0};" parent="1" vertex="1">
          <mxGeometry x="360" y="314" width="90" height="306" as="geometry" />
        </mxCell>
        <mxCell id="3UEoeYZ-971hLKrZ-Qwe-4" value="" style="html=1;points=[[0,0,0,0,5],[0,1,0,0,-5],[1,0,0,0,5],[1,1,0,0,-5]];perimeter=orthogonalPerimeter;outlineConnect=0;targetShapes=umlLifeline;portConstraint=eastwest;newEdgeStyle={&quot;curved&quot;:0,&quot;rounded&quot;:0};" parent="3UEoeYZ-971hLKrZ-Qwe-3" vertex="1">
          <mxGeometry x="40" y="115" width="10" height="130" as="geometry" />
        </mxCell>
      </root>
    </mxGraphModel>
  </diagram>
</mxfile>
